<mxfile host="app.diagrams.net" modified="2024-05-26T18:44:56.817Z" agent="Mozilla/5.0 (Windows NT 10.0; Win64; x64) AppleWebKit/537.36 (KHTML, like Gecko) Chrome/123.0.0.0 Safari/537.36 OPR/109.0.0.0" etag="ULfKWviVFNvjP4n6dmSL" version="24.4.8" type="github">
  <diagram name="PÃ¡gina-1" id="zi_c1xb2pNar7eKBj7E5">
    <mxGraphModel dx="1393" dy="797" grid="1" gridSize="10" guides="1" tooltips="1" connect="1" arrows="1" fold="1" page="1" pageScale="1" pageWidth="827" pageHeight="1169" math="0" shadow="0">
      <root>
        <mxCell id="0" />
        <mxCell id="1" parent="0" />
        <mxCell id="I7cS1sn1uVOprluqp5Sd-14" value="&lt;p style=&quot;margin:0px;margin-top:4px;text-align:center;&quot;&gt;&lt;b&gt;Iphone&lt;/b&gt;&lt;/p&gt;&lt;hr size=&quot;1&quot; style=&quot;border-style:solid;&quot;&gt;&lt;div style=&quot;height:2px;&quot;&gt;&lt;/div&gt;&lt;hr size=&quot;1&quot; style=&quot;border-style:solid;&quot;&gt;&lt;div style=&quot;height:2px;&quot;&gt;&lt;/div&gt;" style="verticalAlign=top;align=left;overflow=fill;html=1;whiteSpace=wrap;" vertex="1" parent="1">
          <mxGeometry x="340" y="180" width="80" height="50" as="geometry" />
        </mxCell>
        <mxCell id="I7cS1sn1uVOprluqp5Sd-41" style="edgeStyle=orthogonalEdgeStyle;rounded=0;orthogonalLoop=1;jettySize=auto;html=1;" edge="1" parent="1" source="I7cS1sn1uVOprluqp5Sd-15" target="I7cS1sn1uVOprluqp5Sd-14">
          <mxGeometry relative="1" as="geometry">
            <mxPoint x="110" y="160" as="targetPoint" />
            <Array as="points">
              <mxPoint x="140" y="205" />
            </Array>
          </mxGeometry>
        </mxCell>
        <mxCell id="I7cS1sn1uVOprluqp5Sd-15" value="ReprodutorMusical" style="swimlane;fontStyle=1;align=center;verticalAlign=top;childLayout=stackLayout;horizontal=1;startSize=26;horizontalStack=0;resizeParent=1;resizeParentMax=0;resizeLast=0;collapsible=1;marginBottom=0;whiteSpace=wrap;html=1;" vertex="1" parent="1">
          <mxGeometry x="30" y="270" width="220" height="100" as="geometry" />
        </mxCell>
        <mxCell id="I7cS1sn1uVOprluqp5Sd-16" value="+ tocar()&lt;div&gt;+pausar ()&lt;/div&gt;&lt;div&gt;+ selecionarMusica(String Musica)&lt;/div&gt;" style="text;strokeColor=none;fillColor=none;align=left;verticalAlign=top;spacingLeft=4;spacingRight=4;overflow=hidden;rotatable=0;points=[[0,0.5],[1,0.5]];portConstraint=eastwest;whiteSpace=wrap;html=1;" vertex="1" parent="I7cS1sn1uVOprluqp5Sd-15">
          <mxGeometry y="26" width="220" height="74" as="geometry" />
        </mxCell>
        <mxCell id="I7cS1sn1uVOprluqp5Sd-33" style="edgeStyle=orthogonalEdgeStyle;rounded=0;orthogonalLoop=1;jettySize=auto;html=1;" edge="1" parent="1" source="I7cS1sn1uVOprluqp5Sd-26" target="I7cS1sn1uVOprluqp5Sd-15">
          <mxGeometry relative="1" as="geometry" />
        </mxCell>
        <mxCell id="I7cS1sn1uVOprluqp5Sd-26" value="&lt;p style=&quot;margin:0px;margin-top:4px;text-align:center;&quot;&gt;&lt;b&gt;Itunes&lt;/b&gt;&lt;/p&gt;&lt;hr size=&quot;1&quot; style=&quot;border-style:solid;&quot;&gt;&lt;div style=&quot;height:2px;&quot;&gt;&lt;/div&gt;&lt;hr size=&quot;1&quot; style=&quot;border-style:solid;&quot;&gt;&lt;div style=&quot;height:2px;&quot;&gt;&lt;/div&gt;" style="verticalAlign=top;align=left;overflow=fill;html=1;whiteSpace=wrap;" vertex="1" parent="1">
          <mxGeometry x="110" y="430" width="60" height="60" as="geometry" />
        </mxCell>
        <mxCell id="I7cS1sn1uVOprluqp5Sd-29" style="edgeStyle=orthogonalEdgeStyle;rounded=0;orthogonalLoop=1;jettySize=auto;html=1;" edge="1" parent="1" source="I7cS1sn1uVOprluqp5Sd-27" target="I7cS1sn1uVOprluqp5Sd-14">
          <mxGeometry relative="1" as="geometry" />
        </mxCell>
        <mxCell id="I7cS1sn1uVOprluqp5Sd-27" value="AparelhoTelefonico" style="swimlane;fontStyle=1;align=center;verticalAlign=top;childLayout=stackLayout;horizontal=1;startSize=26;horizontalStack=0;resizeParent=1;resizeParentMax=0;resizeLast=0;collapsible=1;marginBottom=0;whiteSpace=wrap;html=1;" vertex="1" parent="1">
          <mxGeometry x="270" y="270" width="220" height="100" as="geometry" />
        </mxCell>
        <mxCell id="I7cS1sn1uVOprluqp5Sd-28" value="+ ligar(String numero)&lt;div&gt;+ atender ()&lt;/div&gt;&lt;div&gt;+ IniciarCorreioVoz()&lt;/div&gt;" style="text;strokeColor=none;fillColor=none;align=left;verticalAlign=top;spacingLeft=4;spacingRight=4;overflow=hidden;rotatable=0;points=[[0,0.5],[1,0.5]];portConstraint=eastwest;whiteSpace=wrap;html=1;" vertex="1" parent="I7cS1sn1uVOprluqp5Sd-27">
          <mxGeometry y="26" width="220" height="74" as="geometry" />
        </mxCell>
        <mxCell id="I7cS1sn1uVOprluqp5Sd-32" style="edgeStyle=orthogonalEdgeStyle;rounded=0;orthogonalLoop=1;jettySize=auto;html=1;" edge="1" parent="1" source="I7cS1sn1uVOprluqp5Sd-30" target="I7cS1sn1uVOprluqp5Sd-27">
          <mxGeometry relative="1" as="geometry" />
        </mxCell>
        <mxCell id="I7cS1sn1uVOprluqp5Sd-30" value="&lt;p style=&quot;margin:0px;margin-top:4px;text-align:center;&quot;&gt;&lt;b&gt;Telefone&lt;/b&gt;&lt;/p&gt;&lt;hr size=&quot;1&quot; style=&quot;border-style:solid;&quot;&gt;&lt;div style=&quot;height:2px;&quot;&gt;&lt;/div&gt;&lt;hr size=&quot;1&quot; style=&quot;border-style:solid;&quot;&gt;&lt;div style=&quot;height:2px;&quot;&gt;&lt;/div&gt;" style="verticalAlign=top;align=left;overflow=fill;html=1;whiteSpace=wrap;" vertex="1" parent="1">
          <mxGeometry x="350" y="430" width="60" height="60" as="geometry" />
        </mxCell>
        <mxCell id="I7cS1sn1uVOprluqp5Sd-42" style="edgeStyle=orthogonalEdgeStyle;rounded=0;orthogonalLoop=1;jettySize=auto;html=1;" edge="1" parent="1" source="I7cS1sn1uVOprluqp5Sd-34" target="I7cS1sn1uVOprluqp5Sd-14">
          <mxGeometry relative="1" as="geometry">
            <mxPoint x="480" y="190" as="targetPoint" />
            <Array as="points">
              <mxPoint x="620" y="205" />
            </Array>
          </mxGeometry>
        </mxCell>
        <mxCell id="I7cS1sn1uVOprluqp5Sd-34" value="NavegadorInternet" style="swimlane;fontStyle=1;align=center;verticalAlign=top;childLayout=stackLayout;horizontal=1;startSize=26;horizontalStack=0;resizeParent=1;resizeParentMax=0;resizeLast=0;collapsible=1;marginBottom=0;whiteSpace=wrap;html=1;" vertex="1" parent="1">
          <mxGeometry x="510" y="270" width="220" height="100" as="geometry" />
        </mxCell>
        <mxCell id="I7cS1sn1uVOprluqp5Sd-35" value="+ exibirPagina(String url)&lt;div&gt;+ adicionarNovaAba()&lt;/div&gt;&lt;div&gt;+ atualizarPagina()&lt;/div&gt;" style="text;strokeColor=none;fillColor=none;align=left;verticalAlign=top;spacingLeft=4;spacingRight=4;overflow=hidden;rotatable=0;points=[[0,0.5],[1,0.5]];portConstraint=eastwest;whiteSpace=wrap;html=1;" vertex="1" parent="I7cS1sn1uVOprluqp5Sd-34">
          <mxGeometry y="26" width="220" height="74" as="geometry" />
        </mxCell>
        <mxCell id="I7cS1sn1uVOprluqp5Sd-37" style="edgeStyle=orthogonalEdgeStyle;rounded=0;orthogonalLoop=1;jettySize=auto;html=1;" edge="1" parent="1" source="I7cS1sn1uVOprluqp5Sd-36" target="I7cS1sn1uVOprluqp5Sd-34">
          <mxGeometry relative="1" as="geometry" />
        </mxCell>
        <mxCell id="I7cS1sn1uVOprluqp5Sd-36" value="&lt;p style=&quot;margin:0px;margin-top:4px;text-align:center;&quot;&gt;Safari&lt;/p&gt;&lt;hr size=&quot;1&quot; style=&quot;border-style:solid;&quot;&gt;&lt;div style=&quot;height:2px;&quot;&gt;&lt;/div&gt;&lt;hr size=&quot;1&quot; style=&quot;border-style:solid;&quot;&gt;&lt;div style=&quot;height:2px;&quot;&gt;&lt;/div&gt;" style="verticalAlign=top;align=left;overflow=fill;html=1;whiteSpace=wrap;" vertex="1" parent="1">
          <mxGeometry x="590" y="430" width="60" height="60" as="geometry" />
        </mxCell>
      </root>
    </mxGraphModel>
  </diagram>
</mxfile>
